<svg width="92" height="25" viewBox="0 0 92 25" fill="none" xmlns="http://www.w3.org/2000/svg">
<path d="M13.61 14.2C14.83 14.46 15.81 15.07 16.55 16.03C17.29 16.97 17.66 18.05 17.66 19.27C17.66 21.03 17.04 22.43 15.8 23.47C14.58 24.49 12.87 25 10.67 25H0.86V3.94H10.34C12.48 3.94 14.15 4.43 15.35 5.41C16.57 6.39 17.18 7.72 17.18 9.4C17.18 10.64 16.85 11.67 16.19 12.49C15.55 13.31 14.69 13.88 13.61 14.2ZM5.99 12.46H9.35C10.19 12.46 10.83 12.28 11.27 11.92C11.73 11.54 11.96 10.99 11.96 10.27C11.96 9.55 11.73 9 11.27 8.62C10.83 8.24 10.19 8.05 9.35 8.05H5.99V12.46ZM9.77 20.86C10.63 20.86 11.29 20.67 11.75 20.29C12.23 19.89 12.47 19.32 12.47 18.58C12.47 17.84 12.22 17.26 11.72 16.84C11.24 16.42 10.57 16.21 9.71 16.21H5.99V20.86H9.77ZM33.7454 21.28H25.8854L24.6254 25H19.2554L26.8754 3.94H32.8154L40.4354 25H35.0054L33.7454 21.28ZM32.4254 17.32L29.8154 9.61L27.2354 17.32H32.4254ZM47.8845 21.04H54.6045V25H42.7545V3.94H47.8845V21.04ZM62.1814 3.94V25H57.0514V3.94H62.1814Z" fill="white"/>
<path d="M68.4791 6.52C67.5791 6.52 66.8391 6.26 66.2591 5.74C65.6991 5.2 65.4191 4.54 65.4191 3.76C65.4191 2.96 65.6991 2.3 66.2591 1.78C66.8391 1.24 67.5791 0.969998 68.4791 0.969998C69.3591 0.969998 70.0791 1.24 70.6391 1.78C71.2191 2.3 71.5091 2.96 71.5091 3.76C71.5091 4.54 71.2191 5.2 70.6391 5.74C70.0791 6.26 69.3591 6.52 68.4791 6.52ZM71.0291 8.26V25H65.8991V8.26H71.0291ZM84.9467 8.08C86.9067 8.08 88.4667 8.72 89.6267 10C90.8067 11.26 91.3967 13 91.3967 15.22V25H86.2967V15.91C86.2967 14.79 86.0067 13.92 85.4267 13.3C84.8467 12.68 84.0667 12.37 83.0867 12.37C82.1067 12.37 81.3267 12.68 80.7467 13.3C80.1667 13.92 79.8767 14.79 79.8767 15.91V25H74.7467V8.26H79.8767V10.48C80.3967 9.74 81.0967 9.16 81.9767 8.74C82.8567 8.3 83.8467 8.08 84.9467 8.08Z" fill="#5CB8C0"/>
</svg>
