<svg width="80" height="70" viewBox="0 0 80 70" fill="none" xmlns="http://www.w3.org/2000/svg">
<g clip-path="url(#clip0_29_408)">
<path d="M44.154 12.3347C34.1983 12.3347 25.7273 18.7761 22.6978 27.7049L27.7569 29.9123C29.7113 30.7615 30.9641 32.6888 30.9641 34.8208V37.1035C30.9641 38.4104 30.419 39.6391 29.4433 40.5034C28.4797 41.3646 27.1848 41.7712 25.8929 41.6206L22.3545 41.202C23.0019 43.5358 24.0288 45.704 25.3599 47.6554V47.6675C25.6008 48.0228 25.8417 48.3782 26.1218 48.7064C30.2564 54.145 36.8002 57.6713 44.154 57.6713C56.6453 57.6713 66.8148 47.5019 66.8148 34.9985C66.8148 22.4952 56.6453 12.3377 44.154 12.3377V12.3347ZM39.0949 19.6012C39.3749 18.74 38.1192 18.1317 37.1284 17.7492C39.2966 16.8609 41.6696 16.379 44.154 16.379C46.6384 16.379 48.909 16.8488 51.0531 17.7101C50.0895 18.2039 49.3035 18.8514 49.0355 20.1824C48.8458 21.1461 47.7045 21.4382 46.8161 21.667C45.1177 22.1097 43.5307 22.6548 42.0731 23.772C40.6277 24.8742 38.9142 23.8744 38.866 22.0465C38.8419 21.2334 38.8419 20.4113 39.0949 19.5982V19.6012ZM44.154 53.624C44.0004 53.624 43.8619 53.612 43.7113 53.612C43.2807 52.8772 42.6724 51.76 42.7085 51.3805C42.835 49.8718 43.7113 48.5016 43.7234 46.9688C43.7234 46.2581 43.4945 45.4722 42.9254 44.9903C42.2538 44.4061 41.3534 44.2556 40.6939 43.5961C39.8959 42.798 39.0949 41.1749 39.4773 40.0215C39.6941 39.3741 40.0495 38.817 40.1609 38.1454C40.3265 37.245 40.2121 36.3055 40.4259 35.4051C40.6277 34.5679 41.4287 33.4145 42.4435 33.9716C42.7989 34.1734 42.9766 34.7335 43.3048 34.872C44.2925 35.3027 45.0815 33.4898 46.1084 33.8843C47.4274 34.3782 48.8217 36.2181 50.4057 35.5195C51.8903 34.86 53.3087 34.339 54.9318 34.2005C56.4405 34.0861 56.4164 32.1467 55.8563 31.1831C55.1456 29.9544 55.501 29.2558 55.9948 28.0121C56.3231 27.1629 56.8441 25.8439 57.8469 25.6029C58.4311 25.4644 58.9249 25.8439 59.4309 26.0848C59.9127 26.3257 60.3945 26.5666 60.8763 26.8196C62.0809 29.2919 62.7645 32.0684 62.7645 34.9985C62.7645 45.2704 54.4078 53.627 44.148 53.627L44.154 53.624Z" fill="#444444"/>
<path d="M44.1508 70C63.4508 70 79.1493 54.2986 79.1493 34.9985C79.1493 15.6984 63.4478 0 44.1508 0C36.008 0 28.0789 2.86384 21.8182 8.06453C20.7371 8.96193 20.5896 10.57 21.487 11.6481C22.3814 12.7262 23.9895 12.8767 25.0705 11.9794C30.4188 7.53753 37.1944 5.08927 44.1478 5.08927C60.6382 5.08927 74.054 18.5051 74.054 34.9955C74.054 51.4859 60.6382 64.9047 44.1478 64.9047C37.1914 64.9047 30.4158 62.4564 25.0705 58.0146C24.5947 57.6201 24.0196 57.4274 23.4444 57.4274C22.7126 57.4274 21.9869 57.7406 21.484 58.3459C21.0473 58.8699 20.8425 59.5294 20.9058 60.2069C20.969 60.8845 21.2912 61.4958 21.8152 61.9294C28.0759 67.1301 36.0049 69.994 44.1478 69.994L44.1508 70Z" fill="#5CB8C0"/>
<path d="M27.1637 34.8178V37.1005C27.1637 37.5431 26.7843 37.8864 26.3386 37.8353L17.7802 36.8204L16.41 48.601L22.3063 50.6307L22.2822 53.1422L14.9013 52.305C14.6212 52.4074 14.3171 52.4586 14.0129 52.4586C13.7088 52.4586 13.3926 52.3954 13.1246 52.3201L5.74362 53.1452L5.73158 50.6337L11.6159 48.604L10.2336 36.8114L1.67522 37.8503C1.23255 37.9015 0.850098 37.5582 0.850098 37.1155V34.8208C0.850098 34.2005 1.20544 33.6554 1.7746 33.3995L9.78793 29.9123L9.85117 22.9379C10.1041 21.3779 10.7124 19.9084 11.664 18.6647L12.4771 17.6107C13.239 16.6079 14.7477 16.5958 15.5216 17.5986L16.3468 18.6526C17.2984 19.9325 17.9067 21.3779 18.1596 22.9258L18.2229 29.9123L26.2362 33.3995C26.8054 33.6524 27.1607 34.1975 27.1607 34.8208L27.1637 34.8178Z" fill="#5CB8C0"/>
</g>
<defs>
<clipPath id="clip0_29_408">
<rect width="78.2994" height="70" fill="white" transform="translate(0.850098)"/>
</clipPath>
</defs>
</svg>
