<svg width="91" height="25" viewBox="0 0 91 25" fill="none" xmlns="http://www.w3.org/2000/svg">
<path d="M13.0592 14.2C14.2792 14.46 15.2592 15.07 15.9992 16.03C16.7392 16.97 17.1092 18.05 17.1092 19.27C17.1092 21.03 16.4892 22.43 15.2492 23.47C14.0292 24.49 12.3192 25 10.1192 25H0.309219V3.94H9.78922C11.9292 3.94 13.5992 4.43 14.7992 5.41C16.0192 6.39 16.6292 7.72 16.6292 9.4C16.6292 10.64 16.2992 11.67 15.6392 12.49C14.9992 13.31 14.1392 13.88 13.0592 14.2ZM5.43922 12.46H8.79922C9.63922 12.46 10.2792 12.28 10.7192 11.92C11.1792 11.54 11.4092 10.99 11.4092 10.27C11.4092 9.55 11.1792 9 10.7192 8.62C10.2792 8.24 9.63922 8.05 8.79922 8.05H5.43922V12.46ZM9.21922 20.86C10.0792 20.86 10.7392 20.67 11.1992 20.29C11.6792 19.89 11.9192 19.32 11.9192 18.58C11.9192 17.84 11.6692 17.26 11.1692 16.84C10.6892 16.42 10.0192 16.21 9.15922 16.21H5.43922V20.86H9.21922ZM33.1946 21.28H25.3346L24.0746 25H18.7046L26.3246 3.94H32.2646L39.8846 25H34.4546L33.1946 21.28ZM31.8746 17.32L29.2646 9.61L26.6846 17.32H31.8746ZM47.3338 21.04H54.0538V25H42.2038V3.94H47.3338V21.04ZM61.6306 3.94V25H56.5006V3.94H61.6306Z" fill="#262647"/>
<path d="M67.9283 6.52C67.0283 6.52 66.2883 6.26 65.7083 5.74C65.1483 5.2 64.8683 4.54 64.8683 3.76C64.8683 2.96 65.1483 2.3 65.7083 1.78C66.2883 1.24 67.0283 0.969998 67.9283 0.969998C68.8083 0.969998 69.5283 1.24 70.0883 1.78C70.6683 2.3 70.9583 2.96 70.9583 3.76C70.9583 4.54 70.6683 5.2 70.0883 5.74C69.5283 6.26 68.8083 6.52 67.9283 6.52ZM70.4783 8.26V25H65.3483V8.26H70.4783ZM84.3959 8.08C86.3559 8.08 87.9159 8.72 89.0759 10C90.2559 11.26 90.8459 13 90.8459 15.22V25H85.7459V15.91C85.7459 14.79 85.4559 13.92 84.8759 13.3C84.2959 12.68 83.5159 12.37 82.5359 12.37C81.5559 12.37 80.7759 12.68 80.1959 13.3C79.6159 13.92 79.3259 14.79 79.3259 15.91V25H74.1959V8.26H79.3259V10.48C79.8459 9.74 80.5459 9.16 81.4259 8.74C82.3059 8.3 83.2959 8.08 84.3959 8.08Z" fill="#5CB8C0"/>
</svg>
