<svg width="25" height="25" viewBox="0 0 25 25" fill="none" xmlns="http://www.w3.org/2000/svg">
<path d="M23.8564 6.77427C23.5838 5.7478 22.7805 4.93938 21.7607 4.66503C19.9122 4.1665 12.4998 4.1665 12.4998 4.1665C12.4998 4.1665 5.08749 4.1665 3.23892 4.66503C2.21909 4.93942 1.41587 5.7478 1.14326 6.77427C0.647949 8.63482 0.647949 12.5167 0.647949 12.5167C0.647949 12.5167 0.647949 16.3985 1.14326 18.2591C1.41587 19.2856 2.21909 20.0603 3.23892 20.3346C5.08749 20.8332 12.4998 20.8332 12.4998 20.8332C12.4998 20.8332 19.9121 20.8332 21.7607 20.3346C22.7805 20.0603 23.5838 19.2856 23.8564 18.2591C24.3517 16.3985 24.3517 12.5167 24.3517 12.5167C24.3517 12.5167 24.3517 8.63482 23.8564 6.77427ZM10.0756 16.0411V8.99224L16.2708 12.5168L10.0756 16.0411Z" fill="white"/>
</svg>
